<svg xmlns="http://www.w3.org/2000/svg" xmlns:xlink="http://www.w3.org/1999/xlink" version="1.1" x="0px" y="0px" viewBox="0 0 100 125" enable-background="new 0 0 100 100" xml:space="preserve"><g><path fill="#000000" d="M1355.15,100.38c0-5.709-4.645-10.354-10.354-10.354s-10.354,4.645-10.354,10.354   c0,5.71,4.645,10.355,10.354,10.355S1355.15,106.09,1355.15,100.38z M1344.797,109.535c-5.049,0-9.154-4.106-9.154-9.155   c0-5.047,4.105-9.153,9.154-9.153c5.047,0,9.152,4.106,9.152,9.153C1353.949,105.429,1349.844,109.535,1344.797,109.535z"/><path fill="#000000" d="M1423.516,129.803c-0.004-0.005-0.01-0.013-0.014-0.019c-0.002-0.003-0.002-0.005-0.002-0.008   c-8.053-12.019-18.357-22.005-30.625-29.685c0,0,0-0.001-0.002-0.001c-6.977-5.015-15.174-7.768-23.738-8.016   c0.412-10.617-0.336-21.297-2.24-31.753c-0.227-1.24-0.922-2.318-1.959-3.035c-1.037-0.716-2.287-0.984-3.531-0.761   c-1.238,0.227-2.316,0.921-3.035,1.957c-0.717,1.037-0.986,2.291-0.762,3.531c1.891,10.366,2.57,20.956,2.021,31.478   c0,0.001,0,0.001,0,0.002l-1.086,15.755l0,0c-0.896,10.488-3.023,20.882-6.316,30.893c-0.812,2.472,0.539,5.144,3.01,5.957   c0.488,0.162,0.984,0.238,1.473,0.238c1.98,0,3.832-1.262,4.484-3.245c3.262-9.909,5.447-20.194,6.512-30.575   c4.695-0.11,9.307,1.366,13.029,4.238c8.537,7.494,15.441,16.445,20.523,26.602c0.65,1.297,1.766,2.263,3.141,2.721   c0.562,0.188,1.143,0.28,1.719,0.28c0.832,0,1.66-0.193,2.426-0.576c1.297-0.648,2.264-1.764,2.723-3.14   c0.457-1.376,0.352-2.849-0.297-4.145c-3.877-7.746-8.762-14.953-14.525-21.421c-0.131-0.149-0.137-0.368-0.012-0.521   c0.143-0.173,0.398-0.198,0.566-0.057c0.002,0.001,0.002,0.001,0.004,0.003c6.754,5.529,12.629,12.02,17.457,19.286   c1.043,1.571,2.77,2.424,4.529,2.424c1.031,0,2.074-0.293,2.994-0.906C1424.475,135.649,1425.156,132.272,1423.516,129.803z    M1421.32,136.306c-1.945,1.29-4.574,0.758-5.863-1.182c-4.893-7.367-10.846-13.945-17.695-19.551c0-0.001,0-0.002-0.002-0.003   c-0.68-0.56-1.693-0.461-2.256,0.224c-0.502,0.615-0.482,1.489,0.045,2.081c5.691,6.388,10.518,13.507,14.346,21.158   c0.506,1.011,0.588,2.157,0.232,3.229c-0.357,1.072-1.109,1.94-2.121,2.446c-1.01,0.505-2.156,0.589-3.229,0.23   c-1.07-0.356-1.941-1.108-2.445-2.119c-5.156-10.302-12.16-19.379-20.818-26.979c-0.004-0.005-0.012-0.006-0.018-0.011   c-0.004-0.003-0.006-0.009-0.012-0.013c-4.086-3.159-9.17-4.76-14.346-4.496c-0.041,0.002-0.076,0.019-0.115,0.029   c-0.014,0.003-0.027,0.006-0.041,0.01c-0.064,0.021-0.121,0.052-0.174,0.093c-0.008,0.006-0.018,0.013-0.025,0.021   c-0.043,0.036-0.078,0.078-0.109,0.126c-0.016,0.022-0.029,0.044-0.043,0.068c-0.018,0.04-0.029,0.079-0.037,0.123   c-0.006,0.024-0.021,0.044-0.023,0.07c-1.035,10.477-3.227,20.858-6.516,30.855c-0.607,1.845-2.602,2.848-4.443,2.243   c-1.844-0.607-2.85-2.601-2.246-4.443c3.326-10.103,5.469-20.592,6.373-31.175c0-0.001,0-0.004,0-0.005s0.002-0.004,0.002-0.006   l1.092-15.834c0.002-0.008-0.004-0.015-0.004-0.021c0.549-10.589-0.137-21.246-2.039-31.677c-0.168-0.925,0.033-1.858,0.568-2.632   s1.338-1.292,2.264-1.459c0.924-0.175,1.857,0.032,2.633,0.565c0.771,0.536,1.291,1.34,1.459,2.265   c1.926,10.562,2.668,21.355,2.205,32.08c0,0.003,0,0.006,0,0.009s0,0.005,0,0.007c0,0.032,0.012,0.059,0.016,0.09   c0.008,0.047,0.01,0.095,0.025,0.138c0.014,0.032,0.035,0.057,0.053,0.085c0.023,0.037,0.041,0.077,0.07,0.108   c0.025,0.027,0.059,0.044,0.09,0.065c0.033,0.023,0.061,0.051,0.096,0.067s0.074,0.019,0.111,0.028   c0.037,0.009,0.072,0.025,0.113,0.027c0.006,0,0.01,0,0.016,0c8.541,0.128,16.725,2.833,23.664,7.822   c0.006,0.004,0.012,0.002,0.016,0.005c0.008,0.005,0.012,0.012,0.018,0.017c12.137,7.592,22.328,17.465,30.293,29.351   c0.002,0.001,0.002,0.004,0.002,0.005C1423.791,132.386,1423.262,135.015,1421.32,136.306z"/></g><path fill="#000000" d="M74.484,65.808c-0.01-0.001-0.02-0.007-0.029-0.007c-3.658-0.112-7.344-0.403-10.988-0.847  c1.922-4.562,2.93-9.494,2.922-14.479c1.818-0.637,3.641-1.307,5.428-2.008c1.322-0.52,2.363-1.522,2.932-2.826  c0.568-1.302,0.594-2.748,0.076-4.064c-0.146-0.38-0.34-0.744-0.576-1.087v-0.001l0,0c-3.09-4.463-6.441-8.8-9.961-12.892  c0-0.001,0-0.001,0-0.001v-0.002l0,0l0,0c-0.926-1.076-2.215-1.729-3.633-1.837c-1.061-0.079-2.098,0.153-3.004,0.664  c-0.463-0.763-1.096-1.412-1.891-1.865c-1.234-0.701-2.668-0.882-4.039-0.507c-0.57,0.157-1.107,0.406-1.595,0.738  c-0.001,0.002-0.002,0.003-0.004,0.004c-2.117,1.448-4.222,2.952-6.302,4.495c-5.376-1.957-11.433,0.565-13.767,5.877  c-1.877,4.278-0.783,9.264,2.552,12.394c-0.384,0.42-0.73,0.878-0.99,1.415l-9.783,20.233c-1.446,2.992-0.188,6.604,2.806,8.053  c0.634,0.305,1.309,0.496,2.008,0.568c1.981,0.203,3.962,0.305,5.941,0.305c4.502,0,8.985-0.539,13.393-1.586  c1.44,0.87,3.035,1.319,4.628,1.319c0.907,0,1.805-0.144,2.672-0.414c0.686,0.263,1.42,0.407,2.154,0.407h18.984  c3.324,0,6.029-2.705,6.029-6.028C80.447,68.527,77.777,65.844,74.484,65.808z M62.467,29.159c0,0,0,0,0,0.002l0,0  c3.465,4.027,6.764,8.299,9.805,12.692c0.002,0,0.002,0.001,0.002,0.001c0.129,0.187,0.234,0.386,0.316,0.594  c0.283,0.727,0.27,1.521-0.041,2.235c-0.312,0.715-0.883,1.266-1.609,1.55c-1.531,0.602-3.088,1.175-4.646,1.73  c-0.025-0.338-0.041-0.674-0.074-1.012c-0.172-1.76-0.852-3.375-1.902-4.699c0.039-0.052,0.082-0.098,0.113-0.152  c0.035-0.069,0.053-0.145,0.074-0.219c0.023-0.072,0.051-0.141,0.059-0.216c0.008-0.073-0.004-0.146-0.012-0.221  c-0.006-0.082-0.008-0.163-0.033-0.243c-0.004-0.018,0-0.037-0.006-0.056c-0.021-0.062-0.066-0.106-0.096-0.163  c-0.029-0.054-0.041-0.112-0.078-0.162c-1.332-1.781-2.721-3.554-4.133-5.273c-0.529-2.282-1.092-4.555-1.699-6.811  c0.566-0.428,1.244-0.648,1.969-0.587C61.252,28.21,61.959,28.567,62.467,29.159z M32.25,36.129c1.591-3.62,5.399-5.579,9.134-5.004  c-1.089,0.833-2.171,1.676-3.239,2.528c-2.291,1.832-2.664,5.186-0.835,7.477c1.049,1.312,2.598,1.996,4.161,1.996  c1.162-0.001,2.332-0.379,3.311-1.158c0.002-0.001,0.005-0.002,0.007-0.003c1.237-0.99,2.52-1.98,3.818-2.966  c0.143,2.107-0.478,4.167-1.788,5.843c-1.265,1.616-3.027,2.695-5.015,3.101c-0.555-0.726-1.261-1.349-2.138-1.773  c-1.652-0.799-3.484-0.748-5.047-0.061C31.737,43.693,30.72,39.618,32.25,36.129z M42.532,64.97  c-1.876,0.416-3.78,0.723-5.695,0.901l5.635-11.648c0-0.001,0-0.003,0.001-0.004c0.635-1.317,0.721-2.745,0.393-4.065  c2.151-0.561,4.063-1.756,5.525-3.465c-0.128,0.982-0.112,1.986,0.095,2.978c0.734,3.527,0.556,7.187-0.496,10.628  C45.594,61.024,43.623,62.713,42.532,64.97z M46.862,74.29c-0.011-0.008-0.022-0.008-0.033-0.015  c-0.078-0.052-0.166-0.078-0.255-0.11c-0.06-0.021-0.116-0.054-0.177-0.065c-0.067-0.012-0.137-0.001-0.204-0.002  c-0.092,0-0.181-0.007-0.269,0.013c-0.011,0.002-0.022-0.001-0.033,0.001c-6.229,1.535-12.619,1.986-19,1.328  c-0.422-0.044-0.83-0.158-1.211-0.343c-1.801-0.87-2.559-3.045-1.688-4.846l9.783-20.233c0.87-1.801,3.047-2.557,4.847-1.688  c1.8,0.871,2.557,3.044,1.688,4.846c-0.001,0-0.001,0.001-0.001,0.001l-6.537,13.517c-0.009,0.019-0.007,0.039-0.014,0.058  c-0.032,0.072-0.044,0.15-0.06,0.229c-0.016,0.08-0.037,0.156-0.037,0.235c0,0.021-0.009,0.039-0.008,0.059  c0.004,0.061,0.029,0.11,0.041,0.167c0.016,0.076,0.025,0.149,0.055,0.222c0.031,0.076,0.076,0.141,0.121,0.208  c0.039,0.059,0.072,0.117,0.122,0.169c0.063,0.066,0.138,0.113,0.216,0.164c0.042,0.028,0.073,0.069,0.121,0.093  c0.011,0.005,0.022,0.002,0.033,0.008c0.151,0.067,0.314,0.111,0.488,0.111c0.021,0,0.04,0,0.061-0.001  c2.93-0.143,5.865-0.556,8.723-1.226c0.012-0.003,0.02-0.011,0.031-0.015c0.137-0.036,0.267-0.094,0.383-0.176  c0.027-0.019,0.046-0.043,0.071-0.064c0.082-0.067,0.155-0.144,0.217-0.234c0.029-0.041,0.051-0.083,0.074-0.126  c0.021-0.039,0.049-0.071,0.065-0.112c0.81-2.05,2.577-3.554,4.728-4.021c0.017-0.003,0.029-0.015,0.046-0.02  c0.132-0.035,0.259-0.087,0.371-0.164c0.01-0.006,0.02-0.012,0.029-0.019c0.109-0.079,0.2-0.179,0.28-0.292  c0.028-0.041,0.044-0.087,0.067-0.131c0.029-0.056,0.066-0.104,0.087-0.164c1.354-4.016,1.614-8.329,0.748-12.475  c-0.472-2.258,0.288-4.628,1.983-6.188c0.035-0.033,0.051-0.078,0.082-0.113c0.053-0.062,0.104-0.126,0.145-0.199  c0.035-0.067,0.061-0.137,0.084-0.209c0.023-0.073,0.043-0.144,0.053-0.22c0.01-0.082,0.006-0.16,0-0.242  c-0.006-0.05,0.01-0.095-0.002-0.144c-0.422-2.043-0.887-4.11-1.377-6.145c-0.002-0.003-0.002-0.006-0.002-0.009  c-0.002-0.001-0.002-0.002-0.002-0.002c-0.008-0.041-0.035-0.07-0.049-0.109c-0.039-0.108-0.076-0.219-0.146-0.317  c-0.002-0.001-0.002-0.001-0.004-0.002c-0.094-0.128-0.211-0.234-0.344-0.314c-0.086-0.054-0.186-0.076-0.281-0.105  c-0.052-0.016-0.097-0.046-0.149-0.054c-0.157-0.026-0.316-0.021-0.474,0.018l0,0c-0.023,0.006-0.039,0.022-0.062,0.029  c-0.127,0.037-0.252,0.085-0.364,0.167c-0.003,0.002-0.003,0.003-0.005,0.004l-0.001,0.001c-0.396,0.288-0.777,0.583-1.169,0.873  c-0.025,0.019-0.052,0.035-0.075,0.057c-1.842,1.367-3.654,2.751-5.386,4.137l-0.001,0.001c-1.259,1.002-3.098,0.798-4.103-0.458  c-1.005-1.258-0.798-3.1,0.458-4.104c3.83-3.059,7.811-6.004,11.832-8.756c0.004,0,0.004,0,0.006-0.001  c0.268-0.185,0.562-0.32,0.875-0.407c1.549-0.423,3.158,0.49,3.588,2.038c0,0.001,0,0.003,0,0.004  c1.121,4.093,2.125,8.27,2.982,12.411c0.01,0.048,0.037,0.087,0.053,0.133c0.02,0.059,0.037,0.114,0.066,0.171  c0.043,0.079,0.094,0.148,0.15,0.217c0.037,0.043,0.068,0.088,0.111,0.125c0.084,0.075,0.18,0.132,0.281,0.181  c0.027,0.013,0.047,0.037,0.076,0.049c2.328,0.906,3.924,3.011,4.166,5.494c0.926,9.38-2.08,18.854-8.24,25.991  C53.385,75.729,49.633,76.208,46.862,74.29z M74.418,75.458h-0.1c-0.002,0-0.004-0.001-0.006-0.001  c-5.422-0.159-10.875-0.681-16.25-1.513c1.695-2.08,3.15-4.327,4.346-6.7c3.965,0.507,7.986,0.832,11.973,0.956  c0.014,0,0.025,0,0.037,0c2,0,3.629,1.628,3.629,3.63C78.047,73.83,76.418,75.458,74.418,75.458z"/><text x="0" y="115" fill="#000000" font-size="5px" font-weight="bold" font-family="'Helvetica Neue', Helvetica, Arial-Unicode, Arial, Sans-serif">Created by Lluisa Iborra</text><text x="0" y="120" fill="#000000" font-size="5px" font-weight="bold" font-family="'Helvetica Neue', Helvetica, Arial-Unicode, Arial, Sans-serif">from the Noun Project</text></svg>